<svg xmlns="http://www.w3.org/2000/svg" viewBox="0 0 400 300" role="img" aria-label="ERI Energie Rinnovabili Italia"><defs>
  <linearGradient id="k-en" x1="0" y1="1" x2="1" y2="0">
    <stop offset="0" stop-color="#14B88C"/><stop offset=".55" stop-color="#9ED36A"/><stop offset="1" stop-color="#F2C35B"/></linearGradient>
  <linearGradient id="k-sole" x1="0" y1="0" x2="1" y2="1">
    <stop offset="0" stop-color="#FFD978"/><stop offset="1" stop-color="#F08A3C"/></linearGradient>
  <linearGradient id="k-linea" x1="0" x2="1">
    <stop offset="0" stop-color="#14B88C"/><stop offset=".5" stop-color="#F2C35B"/><stop offset="1" stop-color="#6FC3E8"/></linearGradient></defs><circle cx="101" cy="152" r="1.3" fill="#3A4247"/><circle cx="112" cy="152" r="1.3" fill="#3A4247"/><circle cx="123" cy="152" r="1.3" fill="#3A4247"/><circle cx="134" cy="152" r="2.81" fill="url(#k-en)" opacity="0.63"/><circle cx="145" cy="152" r="3.04" fill="url(#k-en)" opacity="0.72"/><circle cx="156" cy="152" r="3.27" fill="url(#k-en)" opacity="0.8"/><circle cx="167" cy="152" r="5" fill="url(#k-sole)" opacity="1"/><circle cx="178" cy="152" r="5" fill="url(#k-sole)" opacity="1"/><circle cx="189" cy="152" r="5" fill="url(#k-sole)" opacity="1"/><circle cx="200" cy="152" r="5" fill="url(#k-sole)" opacity="1"/><circle cx="211" cy="152" r="5" fill="url(#k-sole)" opacity="1"/><circle cx="222" cy="152" r="5" fill="url(#k-sole)" opacity="1"/><circle cx="233" cy="152" r="5" fill="url(#k-sole)" opacity="1"/><circle cx="244" cy="152" r="3.27" fill="url(#k-en)" opacity="0.8"/><circle cx="255" cy="152" r="3.04" fill="url(#k-en)" opacity="0.72"/><circle cx="266" cy="152" r="2.81" fill="url(#k-en)" opacity="0.63"/><circle cx="277" cy="152" r="1.3" fill="#3A4247"/><circle cx="288" cy="152" r="1.3" fill="#3A4247"/><circle cx="299" cy="152" r="1.3" fill="#3A4247"/><circle cx="101" cy="141" r="1.3" fill="#3A4247"/><circle cx="112" cy="141" r="1.3" fill="#3A4247"/><circle cx="123" cy="141" r="1.3" fill="#3A4247"/><circle cx="134" cy="141" r="2.79" fill="url(#k-en)" opacity="0.62"/><circle cx="145" cy="141" r="3.02" fill="url(#k-en)" opacity="0.71"/><circle cx="156" cy="141" r="3.25" fill="url(#k-en)" opacity="0.79"/><circle cx="167" cy="141" r="5" fill="url(#k-sole)" opacity="1"/><circle cx="178" cy="141" r="5" fill="url(#k-sole)" opacity="1"/><circle cx="189" cy="141" r="5" fill="url(#k-sole)" opacity="1"/><circle cx="200" cy="141" r="5" fill="url(#k-sole)" opacity="1"/><circle cx="211" cy="141" r="5" fill="url(#k-sole)" opacity="1"/><circle cx="222" cy="141" r="5" fill="url(#k-sole)" opacity="1"/><circle cx="233" cy="141" r="5" fill="url(#k-sole)" opacity="1"/><circle cx="244" cy="141" r="3.25" fill="url(#k-en)" opacity="0.79"/><circle cx="255" cy="141" r="3.02" fill="url(#k-en)" opacity="0.71"/><circle cx="266" cy="141" r="2.79" fill="url(#k-en)" opacity="0.62"/><circle cx="277" cy="141" r="1.3" fill="#3A4247"/><circle cx="288" cy="141" r="1.3" fill="#3A4247"/><circle cx="299" cy="141" r="1.3" fill="#3A4247"/><circle cx="101" cy="130" r="1.3" fill="#3A4247"/><circle cx="112" cy="130" r="1.3" fill="#3A4247"/><circle cx="123" cy="130" r="1.3" fill="#3A4247"/><circle cx="134" cy="130" r="2.74" fill="url(#k-en)" opacity="0.6"/><circle cx="145" cy="130" r="2.95" fill="url(#k-en)" opacity="0.68"/><circle cx="156" cy="130" r="3.16" fill="url(#k-en)" opacity="0.76"/><circle cx="167" cy="130" r="3.37" fill="url(#k-en)" opacity="0.84"/><circle cx="178" cy="130" r="5" fill="url(#k-sole)" opacity="1"/><circle cx="189" cy="130" r="5" fill="url(#k-sole)" opacity="1"/><circle cx="200" cy="130" r="5" fill="url(#k-sole)" opacity="1"/><circle cx="211" cy="130" r="5" fill="url(#k-sole)" opacity="1"/><circle cx="222" cy="130" r="5" fill="url(#k-sole)" opacity="1"/><circle cx="233" cy="130" r="3.37" fill="url(#k-en)" opacity="0.84"/><circle cx="244" cy="130" r="3.16" fill="url(#k-en)" opacity="0.76"/><circle cx="255" cy="130" r="2.95" fill="url(#k-en)" opacity="0.68"/><circle cx="266" cy="130" r="2.74" fill="url(#k-en)" opacity="0.6"/><circle cx="277" cy="130" r="1.3" fill="#3A4247"/><circle cx="288" cy="130" r="1.3" fill="#3A4247"/><circle cx="299" cy="130" r="1.3" fill="#3A4247"/><circle cx="101" cy="119" r="1.3" fill="#3A4247"/><circle cx="112" cy="119" r="1.3" fill="#3A4247"/><circle cx="123" cy="119" r="1.3" fill="#3A4247"/><circle cx="134" cy="119" r="2.65" fill="url(#k-en)" opacity="0.57"/><circle cx="145" cy="119" r="2.85" fill="url(#k-en)" opacity="0.64"/><circle cx="156" cy="119" r="3.04" fill="url(#k-en)" opacity="0.72"/><circle cx="167" cy="119" r="3.22" fill="url(#k-en)" opacity="0.78"/><circle cx="178" cy="119" r="3.37" fill="url(#k-en)" opacity="0.84"/><circle cx="189" cy="119" r="5" fill="url(#k-sole)" opacity="1"/><circle cx="200" cy="119" r="5" fill="url(#k-sole)" opacity="1"/><circle cx="211" cy="119" r="5" fill="url(#k-sole)" opacity="1"/><circle cx="222" cy="119" r="3.37" fill="url(#k-en)" opacity="0.84"/><circle cx="233" cy="119" r="3.22" fill="url(#k-en)" opacity="0.78"/><circle cx="244" cy="119" r="3.04" fill="url(#k-en)" opacity="0.72"/><circle cx="255" cy="119" r="2.85" fill="url(#k-en)" opacity="0.64"/><circle cx="266" cy="119" r="2.65" fill="url(#k-en)" opacity="0.57"/><circle cx="277" cy="119" r="1.3" fill="#3A4247"/><circle cx="288" cy="119" r="1.3" fill="#3A4247"/><circle cx="299" cy="119" r="1.3" fill="#3A4247"/><circle cx="101" cy="108" r="1.3" fill="#3A4247"/><circle cx="112" cy="108" r="1.3" fill="#3A4247"/><circle cx="123" cy="108" r="1.3" fill="#3A4247"/><circle cx="134" cy="108" r="1.3" fill="#3A4247"/><circle cx="145" cy="108" r="2.72" fill="url(#k-en)" opacity="0.59"/><circle cx="156" cy="108" r="2.89" fill="url(#k-en)" opacity="0.66"/><circle cx="167" cy="108" r="3.04" fill="url(#k-en)" opacity="0.72"/><circle cx="178" cy="108" r="3.16" fill="url(#k-en)" opacity="0.76"/><circle cx="189" cy="108" r="3.25" fill="url(#k-en)" opacity="0.79"/><circle cx="200" cy="108" r="3.27" fill="url(#k-en)" opacity="0.8"/><circle cx="211" cy="108" r="3.25" fill="url(#k-en)" opacity="0.79"/><circle cx="222" cy="108" r="3.16" fill="url(#k-en)" opacity="0.76"/><circle cx="233" cy="108" r="3.04" fill="url(#k-en)" opacity="0.72"/><circle cx="244" cy="108" r="2.89" fill="url(#k-en)" opacity="0.66"/><circle cx="255" cy="108" r="2.72" fill="url(#k-en)" opacity="0.59"/><circle cx="266" cy="108" r="1.3" fill="#3A4247"/><circle cx="277" cy="108" r="1.3" fill="#3A4247"/><circle cx="288" cy="108" r="1.3" fill="#3A4247"/><circle cx="299" cy="108" r="1.3" fill="#3A4247"/><circle cx="101" cy="97" r="1.3" fill="#3A4247"/><circle cx="112" cy="97" r="1.3" fill="#3A4247"/><circle cx="123" cy="97" r="1.3" fill="#3A4247"/><circle cx="134" cy="97" r="1.3" fill="#3A4247"/><circle cx="145" cy="97" r="1.3" fill="#3A4247"/><circle cx="156" cy="97" r="2.72" fill="url(#k-en)" opacity="0.59"/><circle cx="167" cy="97" r="2.85" fill="url(#k-en)" opacity="0.64"/><circle cx="178" cy="97" r="2.95" fill="url(#k-en)" opacity="0.68"/><circle cx="189" cy="97" r="3.02" fill="url(#k-en)" opacity="0.71"/><circle cx="200" cy="97" r="3.04" fill="url(#k-en)" opacity="0.72"/><circle cx="211" cy="97" r="3.02" fill="url(#k-en)" opacity="0.71"/><circle cx="222" cy="97" r="2.95" fill="url(#k-en)" opacity="0.68"/><circle cx="233" cy="97" r="2.85" fill="url(#k-en)" opacity="0.64"/><circle cx="244" cy="97" r="2.72" fill="url(#k-en)" opacity="0.59"/><circle cx="255" cy="97" r="1.3" fill="#3A4247"/><circle cx="266" cy="97" r="1.3" fill="#3A4247"/><circle cx="277" cy="97" r="1.3" fill="#3A4247"/><circle cx="288" cy="97" r="1.3" fill="#3A4247"/><circle cx="299" cy="97" r="1.3" fill="#3A4247"/><circle cx="101" cy="86" r="1.3" fill="#3A4247"/><circle cx="112" cy="86" r="1.3" fill="#3A4247"/><circle cx="123" cy="86" r="1.3" fill="#3A4247"/><circle cx="134" cy="86" r="1.3" fill="#3A4247"/><circle cx="145" cy="86" r="1.3" fill="#3A4247"/><circle cx="156" cy="86" r="1.3" fill="#3A4247"/><circle cx="167" cy="86" r="2.65" fill="url(#k-en)" opacity="0.57"/><circle cx="178" cy="86" r="2.74" fill="url(#k-en)" opacity="0.6"/><circle cx="189" cy="86" r="2.79" fill="url(#k-en)" opacity="0.62"/><circle cx="200" cy="86" r="2.81" fill="url(#k-en)" opacity="0.63"/><circle cx="211" cy="86" r="2.79" fill="url(#k-en)" opacity="0.62"/><circle cx="222" cy="86" r="2.74" fill="url(#k-en)" opacity="0.6"/><circle cx="233" cy="86" r="2.65" fill="url(#k-en)" opacity="0.57"/><circle cx="244" cy="86" r="1.3" fill="#3A4247"/><circle cx="255" cy="86" r="1.3" fill="#3A4247"/><circle cx="266" cy="86" r="1.3" fill="#3A4247"/><circle cx="277" cy="86" r="1.3" fill="#3A4247"/><circle cx="288" cy="86" r="1.3" fill="#3A4247"/><circle cx="299" cy="86" r="1.3" fill="#3A4247"/><circle cx="101" cy="75" r="1.3" fill="#3A4247"/><circle cx="112" cy="75" r="1.3" fill="#3A4247"/><circle cx="123" cy="75" r="1.3" fill="#3A4247"/><circle cx="134" cy="75" r="1.3" fill="#3A4247"/><circle cx="145" cy="75" r="1.3" fill="#3A4247"/><circle cx="156" cy="75" r="1.3" fill="#3A4247"/><circle cx="167" cy="75" r="1.3" fill="#3A4247"/><circle cx="178" cy="75" r="1.3" fill="#3A4247"/><circle cx="189" cy="75" r="1.3" fill="#3A4247"/><circle cx="200" cy="75" r="1.3" fill="#3A4247"/><circle cx="211" cy="75" r="1.3" fill="#3A4247"/><circle cx="222" cy="75" r="1.3" fill="#3A4247"/><circle cx="233" cy="75" r="1.3" fill="#3A4247"/><circle cx="244" cy="75" r="1.3" fill="#3A4247"/><circle cx="255" cy="75" r="1.3" fill="#3A4247"/><circle cx="266" cy="75" r="1.3" fill="#3A4247"/><circle cx="277" cy="75" r="1.3" fill="#3A4247"/><circle cx="288" cy="75" r="1.3" fill="#3A4247"/><circle cx="299" cy="75" r="1.3" fill="#3A4247"/><circle cx="101" cy="64" r="1.3" fill="#3A4247"/><circle cx="112" cy="64" r="1.3" fill="#3A4247"/><circle cx="123" cy="64" r="1.3" fill="#3A4247"/><circle cx="134" cy="64" r="1.3" fill="#3A4247"/><circle cx="145" cy="64" r="1.3" fill="#3A4247"/><circle cx="156" cy="64" r="1.3" fill="#3A4247"/><circle cx="167" cy="64" r="1.3" fill="#3A4247"/><circle cx="178" cy="64" r="1.3" fill="#3A4247"/><circle cx="189" cy="64" r="1.3" fill="#3A4247"/><circle cx="200" cy="64" r="1.3" fill="#3A4247"/><circle cx="211" cy="64" r="1.3" fill="#3A4247"/><circle cx="222" cy="64" r="1.3" fill="#3A4247"/><circle cx="233" cy="64" r="1.3" fill="#3A4247"/><circle cx="244" cy="64" r="1.3" fill="#3A4247"/><circle cx="255" cy="64" r="1.3" fill="#3A4247"/><circle cx="266" cy="64" r="1.3" fill="#3A4247"/><circle cx="277" cy="64" r="1.3" fill="#3A4247"/><circle cx="288" cy="64" r="1.3" fill="#3A4247"/><circle cx="299" cy="64" r="1.3" fill="#3A4247"/><text x="200" y="208" text-anchor="middle" font-family="Sora, Jost, sans-serif" font-weight="300" font-size="44" letter-spacing="18" fill="#EEF2F3">eri</text><text x="200" y="236" text-anchor="middle" font-family="Sora, Jost, sans-serif" font-weight="500" font-size="10" letter-spacing="3.6" fill="#8E999F">ENERGIE RINNOVABILI ITALIA</text></svg>